# xmcd
# 
# Track frame offsets:
#     150
#     17909
#     36934
#     62314
#     72097
#     91917
#     101284
#     117883
#     129502
#     160811
#     186310
#     196388
#     209797
#     233925
#     243055
#     258771
#     276678
#     293487
# 
# Disc length: 4230
# 
# Revision: 12
# Processed by: cddbd v1.5.2PL0 Copyright (c) Steve Scherf et al.
# Submitted via: fre:ac v1.0.31
# 
DISCID=fe108412
DTITLE=The Flaming Lips - Embryonic
DYEAR=2009
DGENRE=Rock/Pop
TTITLE0=Convinced of the Hex
TTITLE1=The Sparrow Looks Up at the Machine
TTITLE2=Evil
TTITLE3=Aquarius Sabotage
TTITLE4=See the Leaves
TTITLE5=If
TTITLE6=Gemini Syringes
TTITLE7=Your Bats
TTITLE8=Powerless
TTITLE9=The Ego's Last Stand
TTITLE10=I Can Be a Frog
TTITLE11=Sagittarius Silver Announcement
TTITLE12=Worm Mountain
TTITLE13=Scorpio Sword
TTITLE14=The Impulse
TTITLE15=Silver Trembling Hands
TTITLE16=Virgo Self-Esteem Broadcast
TTITLE17=Watching the Planets
EXTD=YEAR: 2009
EXTT0=
EXTT1=
EXTT2=
EXTT3=
EXTT4=
EXTT5=
EXTT6=
EXTT7=
EXTT8=
EXTT9=
EXTT10=
EXTT11=
EXTT12=
EXTT13=
EXTT14=
EXTT15=
EXTT16=
EXTT17=
PLAYORDER=
